<?xml version="1.0" encoding="utf-8"?>
<!DOCTYPE svg PUBLIC "-//W3C//DTD SVG 1.1//EN" "http://www.w3.org/Graphics/SVG/1.1/DTD/svg11.dtd">
<svg version="1.1" id="Layer_1" xmlns="http://www.w3.org/2000/svg" xmlns:xlink="http://www.w3.org/1999/xlink" x="0px" y="0px"
	 width="96px" height="16px" viewBox="0 0 96 16" enable-background="new 0 0 96 16" xml:space="preserve">
<g transform="translate(0, 0)">
    <rect x="0" y="0" rx="4" ry="4" width="16" height="16" style="fill:#bfe5bf" />
    <text x="8" y="8" fill="#009800" font-family="Arial" style="font-weight:bold" text-anchor="middle" alignment-baseline="central">C</text>
</g>
<g transform="translate(16, 0)">
    <rect x="0" y="0" rx="4" ry="4" width="16" height="16" style="fill:#fef2c0" />
    <text x="8" y="8" fill="#fbca04" font-family="Arial" style="font-weight:bold" text-anchor="middle" alignment-baseline="central">I</text>
</g>
<g transform="translate(32, 0)">
    <rect x="0" y="0" rx="4" ry="4" width="16" height="16" style="fill:#d6bdde" />
    <text x="8" y="8" fill="#6b0090" font-family="Arial" style="font-weight:bold" text-anchor="middle" alignment-baseline="central">F</text>
</g>
<g transform="translate(48, 0)">
    <rect x="0" y="0" rx="4" ry="4" width="16" height="16" style="fill:#fad8c7" />
    <text x="8" y="8" fill="#eb6420" font-family="Arial" style="font-weight:bold" text-anchor="middle" alignment-baseline="central">V</text>
</g>
<g transform="translate(64, 0)">
    <rect x="0" y="0" rx="4" ry="4" width="16" height="16" style="fill:#edbec3" />
    <text x="8" y="8" fill="#db001e" font-family="Arial" style="font-weight:bold" text-anchor="middle" alignment-baseline="central">T</text>
</g>
<g transform="translate(80, 0)">
    <rect x="0" y="0" rx="4" ry="4" width="16" height="16" style="fill:#bbcbea" />
    <text x="8" y="8" fill="#0738c3" font-family="Arial" style="font-weight:bold" text-anchor="middle" alignment-baseline="central">E</text>
</g>
</svg>