<?xml version="1.0" encoding="utf-8"?>
<!DOCTYPE svg PUBLIC "-//W3C//DTD SVG 1.1//EN" "http://www.w3.org/Graphics/SVG/1.1/DTD/svg11.dtd">
<svg version="1.1" id="Layer_1" xmlns="http://www.w3.org/2000/svg" xmlns:xlink="http://www.w3.org/1999/xlink" x="0px" y="0px"
	 width="80px" height="16px" viewBox="0 0 80 16" enable-background="new 0 0 80 16" xml:space="preserve">
<g transform="translate(0, 0)">
	<polygon fill="#6c7079" points="8,12.6 1.3,4.9 2.7,3.4 8,9.7 13.3,3.4 14.7,4.9"/>
</g>
<g transform="translate(16, 0)">
	<path fill="#6c7079" d="M15,3H8.3999996L5.6999998,0.3C5.5,0.1,5.3000002,0,5,0H1C0.4,0,0,0.4,0,1v14c0,0.6000004,0.4,1,1,1h14
		c0.6000004,0,1-0.3999996,1-1V4C16,3.4000001,15.6000004,3,15,3z"/>
</g>
<g transform="translate(32, 0)">
	<path fill="#6c7079" d="M15.8000002,7.4000001C15.6000004,7.1999998,15.3000002,7,15,7H4
		C3.5999999,7,3.2,7.1999998,3.0999999,7.5999999l-3,7.0000005C-0.1,15.1999998,0.1,16,1,16h11
		c0.3999996,0,0.8000002-0.1999998,0.8999996-0.6000004l3-7C16.1000004,8.1000004,16,7.6999998,15.8000002,7.4000001z"/>
	<path fill="#6C7079" d="M1.2,6.8000002C1.7,5.6999998,2.8,5,4,5h9V3c0-0.5999999-0.3999996-1-1-1H6.4000001L4.6999998,0.3
		C4.5,0.1,4.3000002,0,4,0H1C0.4,0,0,0.4,0,1v8.6999998L1.2,6.8000002z"/>
</g>
<g transform="translate(48, 0)">
  <path fill="#6c7079" d="m11.48068,3.19489c-0.29736,0 -0.5622,-0.21549 -0.5622,-0.48143l0,-2.59972l-8.7684,0c-0.29736,
  0 -0.5622,0.21549 -0.5622,0.48143l0,14.82802c0,0.2653 0.25192,0.49664 0.54864,0.49747l11.85468,0.04814c0.00057,
  0 0.00108,0 0.00108,0c0.14304,0 0.26779,-0.06656 0.36863,-0.1565c0.10134,-0.09032 0.14635,-0.22903 0.14635,-0.35703l0,
  -12.2604l-3.02656,0l-0.00002,0.00001zm0.03589,8.53734l-7.10562,0c-0.29736,0 -0.5383,-0.21549 -0.5383,-0.48143s0.24094,
  -0.48143 0.5383,-0.48143l7.10562,0c0.29736,0 0.5383,0.21549 0.5383,0.48143s-0.24094,0.48143 -0.5383,0.48143zm0,
  -2.11829l-7.10562,0c-0.29736,0 -0.5383,-0.21549 -0.5383,-0.48143s0.24094,-0.48143 0.5383,-0.48143l7.10562,0c0.29736,
  0 0.5383,0.21549 0.5383,0.48143s-0.24094,0.48143 -0.5383,0.48143zm0,-2.11829l-7.10562,0c-0.29736,0 -0.5383,
  -0.21549 -0.5383,-0.48143s0.24094,-0.48143 0.5383,-0.48143l7.10562,0c0.29736,0 0.5383,0.21549 0.5383,0.48143s-0.24094,
  0.48143 -0.5383,0.48143zm0,-1.98991l-7.10562,0c-0.29736,0 -0.5383,-0.21549 -0.5383,-0.48143s0.24094,-0.48143 0.5383,
  -0.48143l7.10562,0c0.29736,0 0.5383,0.21549 0.5383,0.48143s-0.24094,0.48143 -0.5383,0.48143zm2.79445,-3.27372l-2.31593,
  0l0,-1.96533l2.31593,1.96533z"/>
</g>
<g transform="translate(64, 0)">
   <path stroke="null" fill="#6c7079" d="m11.44979,0.02896l-8.83944,0c-0.59352,0 -1.07683,0.43902 -1.07683,0.97768l0,13.98688c0,0.53947 0.48331,0.97781 1.07683,0.97781l10.8275,0c0.59404,0 1.07691,-0.43834 1.07691,-0.97781l0,-11.94151l-3.06497,-3.02305zm0.25416,1.46298l1.34342,1.32533l-1.34342,0l0,-1.32533zm1.90641,13.50162c0,0.08612 -0.07767,0.15682 -0.17298,0.15682l-10.82702,0c-0.09517,0 -0.17239,-0.0707 -0.17239,-0.15682l0,-13.98692c0,-0.08632 0.07722,-0.15628 0.17239,-0.15628l8.1887,0l0,2.37758c0,0.22637 0.20314,0.40989 0.45267,0.40989l2.35863,0l0,11.35573zm-9.57694,-10.59809l7.6802,0c0.18709,0 0.33884,0.13775 0.33884,0.30758c0,0.16983 -0.15175,0.30758 -0.33884,0.30758l-7.6802,0c-0.18705,0 -0.33884,-0.13775 -0.33884,-0.30758c0,-0.1698 0.15179,-0.30758 0.33884,-0.30758zm8.01904,2.37449c0,0.1698 -0.15175,0.30758 -0.33884,0.30758l-7.6802,0c-0.18705,0 -0.33884,-0.13775 -0.33884,-0.30758s0.15179,-0.30758 0.33884,-0.30758l7.6802,0c0.18709,0 0.33884,0.13778 0.33884,0.30758zm0,1.99923c0,0.16983 -0.15175,0.30758 -0.33884,0.30758l-7.6802,0c-0.18705,0 -0.33884,-0.13775 -0.33884,-0.30758s0.15179,-0.30758 0.33884,-0.30758l7.6802,0c0.18709,0 0.33884,0.13775 0.33884,0.30758zm0,2.03328c0,0.16983 -0.15175,0.30758 -0.33884,0.30758l-7.6802,0c-0.18705,0 -0.33884,-0.13775 -0.33884,-0.30758s0.15179,-0.30758 0.33884,-0.30758l7.6802,0c0.18709,0 0.33884,0.13775 0.33884,0.30758z"/></g>
</svg>